#N canvas 439 151 997 690 10;
#X declare -path Fraise -stdpath Fraise;
#X declare -stdpath moonlib;
#X declare -stdpath hcs;
#X declare -stdpath ggee;
#X declare -stdpath zexy;
#X declare -lib zexy;
#X obj 19 16 declare -path Fraise -stdpath Fraise;
#X obj 20 60 pied/pied 0 41425;
#X obj 20 136 fruit/fruit 1 fruit1 10 firmware;
#X obj 42 213 fruit/receive fruit1;
#X obj 104 280 route M;
#X obj 104 302 unpack f f;
#X floatatom 44 342 5 0 0 0 - - -, f 5;
#X floatatom 177 328 5 0 0 0 - - -, f 5;
#X obj 209 290 print;
#X obj 257 92 ramp/ramp fruit1 122 speedRamp;
#X obj 328 362 fruit/send2 fruit1;
#X msg 439 334 SAVE;
#X obj 104 333 / 1024;
#X obj 93 479 hsl 128 15 -1 1 0 0 empty empty empty -2 -8 0 10 -262144
-1 -1 6350 1;
#X obj 90 521 i;
#X obj 90 543 change;
#X obj 90 565 s fruit1-speedRamp-dest-rcv;
#X obj 107 354 hsl 128 15 -1 1 0 0 empty empty empty -2 -8 0 10 -262144
-1 -1 6350 1;
#X msg 50 454 0;
#X obj 20 39 r piedOn;
#X obj 617 335 s reSend;
#X obj 586 174 f;
#X obj 586 153 route present;
#X obj 615 174 r reSend;
#X obj 528 473 s piedOn;
#X obj 90 454 r speed;
#X obj 586 89 PdServeur NET 424242;
#X obj 528 408 r NET-fromclients;
#X obj 528 430 route CLIENT;
#X obj 563 581 s NET-toclients;
#X obj 586 216 s NET-toclients;
#X obj 586 194 list prepend CLIENT fruitOK;
#X obj 563 559 list prepend CLIENT Echo;
#X obj 43 247 analog/parse;
#X obj 43 269 route 0;
#X floatatom 43 291 5 0 0 0 - - -, f 5;
#X msg 328 338 c 20 i \$1;
#X obj 331 219 hsl 128 15 0 1 0 0 empty empty empty -2 -8 0 10 -262144
-1 -1 0 1;
#X obj 328 289 i;
#X obj 328 311 change;
#X obj 328 194 r light;
#X floatatom 283 345 5 0 0 0 - - -, f 5;
#X obj 328 267 * 1023;
#X obj 391 521 metro 300;
#X obj 389 542 tgl 15 0 empty empty empty 17 7 0 10 -262144 -1 -1 0
1;
#X obj 378 642 s speed;
#X obj 390 564 - 0.5;
#X floatatom 437 609 5 0 0 0 - - -, f 5;
#X obj 343 470 tgl 15 0 empty empty empty 17 7 0 10 -262144 -1 -1 0
1;
#X msg 322 546 0;
#X obj 342 492 t f f f;
#X floatatom 59 378 5 0 0 0 - - -, f 5;
#X msg 449 482 300;
#X floatatom 449 504 5 0 0 0 - - -, f 5;
#X msg 485 478 500;
#N canvas 5 74 450 300 test_connected 0;
#X obj 130 50 inlet;
#X obj 130 79 route test;
#X obj 130 99 t b b;
#X obj 130 121 del 1000;
#X msg 130 143 0;
#X msg 169 144 1;
#X obj 130 169 change;
#X obj 130 194 tgl 15 0 \$0-CONNECTED empty CONNECTED 17 7 0 10 -262144
-1 -1 1 1;
#X obj 109 218 outlet;
#X connect 0 0 1 0;
#X connect 1 0 2 0;
#X connect 2 0 3 0;
#X connect 2 1 5 0;
#X connect 3 0 4 0;
#X connect 4 0 6 0;
#X connect 5 0 6 0;
#X connect 6 0 7 0;
#X connect 6 0 8 0;
#X restore 544 603 pd test_connected;
#X obj 544 624 tgl 15 0 empty empty empty 17 7 0 10 -262144 -1 -1 1
1;
#N canvas 6 74 454 353 speed-line 0;
#X obj 174 148 clip -1 1;
#X obj 174 304 s speed;
#X obj 174 244 *;
#X obj 186 223 t b f;
#X obj 174 265 f;
#X floatatom 129 292 5 0 0 0 - - -, f 5;
#X obj 174 34 inlet;
#X obj 174 98 pack f f;
#X obj 174 56 t a b;
#X msg 206 76 0;
#X obj 174 121 unpack f f;
#X obj 174 170 pack f f;
#X obj 174 192 line;
#X obj 212 193 r \$0-CONNECTED;
#X obj 233 222 tgl 15 0 empty empty empty 17 7 0 10 -262144 -1 -1 1
1;
#X obj 245 148 * 1000;
#X obj 300 129 r speedline-stop;
#X msg 300 151 stop;
#X connect 0 0 11 0;
#X connect 2 0 4 0;
#X connect 3 0 2 0;
#X connect 3 1 2 1;
#X connect 4 0 5 0;
#X connect 4 0 1 0;
#X connect 6 0 8 0;
#X connect 7 0 10 0;
#X connect 8 0 7 0;
#X connect 8 1 9 0;
#X connect 9 0 7 1;
#X connect 10 0 0 0;
#X connect 10 1 15 0;
#X connect 11 0 12 0;
#X connect 12 0 2 0;
#X connect 13 0 14 0;
#X connect 13 0 3 0;
#X connect 15 0 11 1;
#X connect 16 0 17 0;
#X connect 17 0 12 0;
#X restore 711 508 pd speed-line;
#X obj 321 522 sel 0 1;
#X obj 344 667 s speedline-stop;
#X obj 343 394 r bouge;
#X obj 343 415 unpack f f;
#X obj 409 457 clip 100 1000;
#X obj 409 434 * 1000;
#X obj 343 437 != 0;
#X obj 804 458 s bouge;
#X obj 586 133 fruit/receive fruit1;
#X obj 585 247 r NET-nbclients;
#X obj 585 272 sel 0;
#X obj 617 293 b;
#X obj 617 314 del 200;
#N canvas 10 74 454 353 light-line 0;
#X floatatom 129 292 5 0 0 0 - - -, f 5;
#X obj 174 34 inlet;
#X obj 174 98 pack f f;
#X obj 174 56 t a b;
#X msg 206 76 0;
#X obj 174 121 unpack f f;
#X obj 174 170 pack f f;
#X obj 174 192 line;
#X obj 245 148 * 1000;
#X obj 174 148 clip 0 1;
#X obj 174 240 s light;
#X connect 1 0 3 0;
#X connect 2 0 5 0;
#X connect 3 0 2 0;
#X connect 3 1 4 0;
#X connect 4 0 2 1;
#X connect 5 0 9 0;
#X connect 5 1 8 0;
#X connect 6 0 7 0;
#X connect 7 0 10 0;
#X connect 8 0 6 1;
#X connect 9 0 6 0;
#X restore 757 482 pd light-line;
#X msg 460 571 1;
#X obj 390 586 * 1;
#N canvas 661 74 623 510 son 0;
#X obj 127 94 inlet;
#X obj 127 116 route play loop stop volume;
#X obj 127 140 route float;
#X msg 159 238 0 \, open /home/data/son\$1.wav;
#X obj 127 258 del 200;
#X msg 127 279 1;
#X obj 159 344 readsf~ 2;
#X obj 159 387 *~;
#X obj 190 387 *~;
#X obj 266 310 line~;
#X obj 159 410 dac~;
#N canvas 345 238 454 353 vol-line 0;
#X obj 174 34 inlet;
#X obj 174 98 pack f f;
#X obj 174 56 t a b;
#X msg 206 76 0;
#X obj 174 121 unpack f f;
#X obj 174 187 pack f f;
#X obj 241 143 * 1000;
#X obj 174 143 clip 0 1;
#X obj 174 214 outlet;
#X obj 241 165 clip 10 100000;
#X obj 174 165 pow 2;
#X connect 0 0 2 0;
#X connect 1 0 4 0;
#X connect 2 0 1 0;
#X connect 2 1 3 0;
#X connect 3 0 1 1;
#X connect 4 0 7 0;
#X connect 4 1 6 0;
#X connect 5 0 8 0;
#X connect 6 0 9 0;
#X connect 7 0 10 0;
#X connect 9 0 5 1;
#X connect 10 0 5 0;
#X restore 266 287 pd vol-line;
#X obj 369 223 loadbang;
#X msg 369 245 0.7;
#X obj 360 383 dac~;
#X obj 366 353 *~ 0.002;
#X msg 369 270 1;
#X msg 325 44 play \$1;
#X msg 318 17 1;
#X msg 349 18 2;
#X obj 365 331 osc~ 30;
#X obj 245 380 spigot;
#X obj 127 188 f;
#X msg 251 351 0;
#X msg 296 349 1;
#X msg 407 31 1;
#X msg 438 32 2;
#X msg 414 58 play \$1 \, loop 1;
#X msg 244 181 stop;
#X obj 127 165 t f b;
#X obj 127 213 t b f;
#X obj 92 323 f;
#X obj 92 485 s toClient;
#X msg 92 455 son playing \$1;
#X msg 219 455 son stop;
#X msg 309 452 son loop \$1;
#X connect 0 0 1 0;
#X connect 1 0 2 0;
#X connect 1 1 21 1;
#X connect 1 1 35 0;
#X connect 1 2 28 0;
#X connect 1 3 11 0;
#X connect 2 0 29 0;
#X connect 3 0 6 0;
#X connect 4 0 5 0;
#X connect 4 0 31 0;
#X connect 5 0 6 0;
#X connect 6 0 7 0;
#X connect 6 1 8 0;
#X connect 6 2 21 0;
#X connect 6 2 34 0;
#X connect 7 0 10 0;
#X connect 8 0 10 1;
#X connect 9 0 8 1;
#X connect 9 0 7 1;
#X connect 11 0 9 0;
#X connect 12 0 13 0;
#X connect 13 0 11 0;
#X connect 15 0 14 0;
#X connect 15 0 14 1;
#X connect 16 0 11 0;
#X connect 17 0 1 0;
#X connect 18 0 17 0;
#X connect 19 0 17 0;
#X connect 20 0 15 0;
#X connect 21 0 22 0;
#X connect 22 0 30 0;
#X connect 23 0 21 1;
#X connect 24 0 21 1;
#X connect 25 0 27 0;
#X connect 26 0 27 0;
#X connect 27 0 1 0;
#X connect 28 0 6 0;
#X connect 28 0 34 0;
#X connect 29 0 22 0;
#X connect 30 0 4 0;
#X connect 30 1 3 0;
#X connect 30 1 31 1;
#X connect 31 0 33 0;
#X connect 33 0 32 0;
#X connect 34 0 32 0;
#X connect 35 0 32 0;
#X restore 839 438 pd son;
#X obj 531 30 loadbang;
#X msg 531 52 \; pd dsp 1;
#N canvas 334 392 947 381 SEQUENCE 0;
#X floatatom 274 158 5 0 0 0 - - -, f 5;
#X msg 174 56 1;
#X obj 154 192 print line;
#X msg 81 81 stop;
#X obj 158 132 seq/main conduite;
#X floatatom 158 157 5 0 0 0 - - -, f 5;
#X msg 203 60 2;
#X obj 360 64 r seq-conduite-line;
#X obj 360 147 list split 1;
#X obj 360 191 list append;
#X obj 360 215 list prepend light;
#X obj 360 169 / 100;
#X obj 497 147 list split 1;
#X obj 497 191 list append;
#X obj 497 169 / 100;
#X obj 497 215 list prepend speed;
#X msg 655 226 son play \$1;
#X msg 700 206 son loop \$1;
#X msg 746 186 son stop;
#X obj 154 342 s toClient;
#X obj 151 235 r seq-conduite-length;
#X floatatom 100 254 5 0 0 0 - - -, f 5;
#X msg 197 305 seq time \$1;
#X msg 50 275 seq linenb \$1;
#X obj 294 277 r seq-conduite-line;
#X obj 294 299 list prepend seq line;
#X obj 655 164 route PLAY LOOP STOP;
#X msg 631 124 bouge \$1;
#X obj 360 240 s CONTROL-SEQ;
#X obj 655 274 s CONTROL-SEQ;
#X msg 276 197 seq nb \$1;
#X obj 159 91 t b f b f;
#X obj 87 12 r toSeq;
#X obj 86 31 route stop;
#X msg 154 273 seq length \$1;
#X floatatom 133 213 5 0 0 0 - - -, f 5;
#X msg 606 173 0;
#X obj 360 86 route LUMIERE MOTEUR SON REMUER;
#X connect 1 0 31 0;
#X connect 3 0 4 2;
#X connect 4 0 5 0;
#X connect 4 0 23 0;
#X connect 4 1 0 0;
#X connect 4 1 22 0;
#X connect 6 0 31 0;
#X connect 7 0 37 0;
#X connect 8 0 11 0;
#X connect 8 1 9 1;
#X connect 9 0 10 0;
#X connect 10 0 28 0;
#X connect 11 0 9 0;
#X connect 12 0 14 0;
#X connect 12 1 13 1;
#X connect 13 0 15 0;
#X connect 14 0 13 0;
#X connect 15 0 28 0;
#X connect 16 0 29 0;
#X connect 17 0 29 0;
#X connect 18 0 29 0;
#X connect 20 0 21 0;
#X connect 20 0 34 0;
#X connect 22 0 19 0;
#X connect 23 0 19 0;
#X connect 24 0 25 0;
#X connect 25 0 19 0;
#X connect 26 0 16 0;
#X connect 26 1 17 0;
#X connect 26 2 18 0;
#X connect 27 0 29 0;
#X connect 30 0 19 0;
#X connect 31 0 4 1;
#X connect 31 1 4 0;
#X connect 31 2 4 2;
#X connect 31 3 30 0;
#X connect 31 3 36 0;
#X connect 32 0 33 0;
#X connect 33 0 3 0;
#X connect 33 1 31 0;
#X connect 34 0 19 0;
#X connect 35 0 34 0;
#X connect 36 0 17 0;
#X connect 37 0 8 0;
#X connect 37 1 12 0;
#X connect 37 2 26 0;
#X connect 37 3 27 0;
#X restore 742 224 pd SEQUENCE;
#X obj 711 355 r CONTROL;
#X obj 670 483 s CONTROL;
#X obj 711 377 list trim;
#X obj 328 239 pow 2;
#X obj 743 120 r toClient;
#X obj 743 139 list prepend CLIENT;
#X obj 743 159 s NET-toclients;
#X obj 740 292 list prepend control;
#X obj 740 312 s toClient;
#X obj 740 249 r CONTROL-SEQ;
#X obj 756 269 s CONTROL;
#X obj 711 415 route speed light bouge son seq;
#X obj 864 466 s toSeq;
#X obj 171 604 r light;
#X obj 39 608 r speed;
#X msg 39 630 monitor speed \$1;
#X msg 171 628 monitor light \$1;
#X obj 136 668 s toClient;
#X obj 90 499 * -1023;
#X obj 528 452 route piedOn Echo rw ro;
#X obj 605 527 ggee/shell;
#X msg 631 490 ro;
#X msg 596 489 rw;
#N canvas 7 74 591 317 test-rw 0;
#X obj 90 154 ggee/shell;
#X msg 90 127 mount | grep /dev/mmcblk0p2 | cut -d' ' -f 6 | cut -c
2-3;
#X obj 90 181 route ro rw;
#X msg 90 202 ro;
#X msg 127 201 rw;
#X obj 90 227 outlet;
#X obj 90 98 metro 2000;
#X obj 90 54 loadbang;
#X obj 90 76 tgl 15 0 empty empty empty 17 7 0 10 -262144 -1 -1 1 1
;
#X connect 0 0 2 0;
#X connect 1 0 0 0;
#X connect 2 0 3 0;
#X connect 2 1 4 0;
#X connect 3 0 5 0;
#X connect 4 0 5 0;
#X connect 6 0 1 0;
#X connect 7 0 8 0;
#X connect 8 0 6 0;
#X restore 864 195 pd test-rw;
#X obj 848 229 list prepend rorw;
#X obj 896 264 print;
#X connect 3 0 33 0;
#X connect 4 0 5 0;
#X connect 5 0 12 0;
#X connect 5 1 7 0;
#X connect 11 0 10 1;
#X connect 12 0 17 0;
#X connect 13 0 96 0;
#X connect 14 0 15 0;
#X connect 15 0 16 0;
#X connect 18 0 13 0;
#X connect 19 0 1 0;
#X connect 21 0 31 0;
#X connect 22 0 21 0;
#X connect 23 0 21 0;
#X connect 25 0 13 0;
#X connect 27 0 28 0;
#X connect 28 0 97 0;
#X connect 31 0 30 0;
#X connect 32 0 29 0;
#X connect 33 0 34 0;
#X connect 33 1 4 0;
#X connect 34 0 35 0;
#X connect 36 0 10 0;
#X connect 37 0 81 0;
#X connect 38 0 39 0;
#X connect 39 0 36 0;
#X connect 39 0 41 0;
#X connect 40 0 37 0;
#X connect 42 0 38 0;
#X connect 43 0 44 0;
#X connect 44 0 46 0;
#X connect 46 0 47 0;
#X connect 46 0 73 0;
#X connect 48 0 50 0;
#X connect 49 0 45 0;
#X connect 50 0 58 0;
#X connect 50 1 43 0;
#X connect 52 0 53 0;
#X connect 53 0 43 1;
#X connect 54 0 53 0;
#X connect 55 0 56 0;
#X connect 58 0 49 0;
#X connect 58 1 59 0;
#X connect 60 0 61 0;
#X connect 61 0 64 0;
#X connect 61 1 63 0;
#X connect 62 0 53 0;
#X connect 63 0 62 0;
#X connect 64 0 48 0;
#X connect 66 0 22 0;
#X connect 67 0 68 0;
#X connect 68 1 69 0;
#X connect 69 0 70 0;
#X connect 70 0 20 0;
#X connect 73 0 45 0;
#X connect 75 0 76 0;
#X connect 78 0 80 0;
#X connect 80 0 89 0;
#X connect 81 0 42 0;
#X connect 82 0 83 0;
#X connect 83 0 84 0;
#X connect 85 0 86 0;
#X connect 87 0 85 0;
#X connect 87 0 88 0;
#X connect 89 0 57 0;
#X connect 89 1 71 0;
#X connect 89 2 65 0;
#X connect 89 3 74 0;
#X connect 89 4 90 0;
#X connect 91 0 94 0;
#X connect 92 0 93 0;
#X connect 93 0 95 0;
#X connect 94 0 95 0;
#X connect 96 0 14 0;
#X connect 97 0 24 0;
#X connect 97 1 55 0;
#X connect 97 1 32 0;
#X connect 97 2 100 0;
#X connect 97 3 99 0;
#X connect 97 4 79 0;
#X connect 99 0 98 0;
#X connect 100 0 98 0;
#X connect 101 0 102 0;
#X connect 102 0 86 0;
