#N canvas 737 155 659 652 10;
#X obj 98 214 a2l;
#X obj 98 190 spigot;
#X obj 173 309 > 0;
#X floatatom 208 310 5 0 0 0 - - -, f 5;
#X obj 180 467 print clients_echo;
#X obj 98 260 route list;
#X obj 98 164 r \$1-toclients;
#X obj 98 341 s \$1-fromclients;
#X obj 101 114 cnv 15 100 15 empty \$0-crcv Connected:0 2 8 0 12 -261682
-66577 0;
#X msg 248 343 label Connected:\$1;
#X obj 248 367 s \$0-crcv;
#X obj 73 467 s \$1-toclients;
#X text 130 371 redirection;
#X obj 73 443 list trim;
#X msg 231 190 _all_ disconnect;
#X text 98 78 PdServeur \$0 424242;
#X obj 98 288 netreceive \$2;
#X obj 98 236 list prepend send;
#X obj 248 303 f 0;
#X obj 248 280 loadbang;
#X obj 33 371 list split 1;
#X obj 73 422 route TALK echo;
#X obj 173 519 print;
#X obj 73 400 list trim;
#X obj 234 256 s \$1-nbclients;
#X connect 0 0 17 0;
#X connect 1 0 0 0;
#X connect 2 0 1 1;
#X connect 3 0 9 0;
#X connect 5 0 16 0;
#X connect 6 0 1 0;
#X connect 9 0 10 0;
#X connect 13 0 11 0;
#X connect 14 0 1 0;
#X connect 16 0 7 0;
#X connect 16 0 20 0;
#X connect 16 1 3 0;
#X connect 16 1 2 0;
#X connect 16 1 24 0;
#X connect 17 0 5 0;
#X connect 18 0 9 0;
#X connect 19 0 18 0;
#X connect 20 1 23 0;
#X connect 21 0 13 0;
#X connect 21 1 4 0;
#X connect 23 0 21 0;
#X coords 0 -1 1 1 102 30 1 100 100;
