#N canvas 433 129 911 684 10;
#X obj 136 124 text define \$1;
#X obj 304 51 bng 15 250 50 0 empty empty empty 17 7 0 10 -262144 -1
-1;
#X obj 304 18 loadbang;
#X obj 106 255 text get \$1;
#X obj 138 432 -;
#X obj 106 409 t f f;
#X obj 106 453 s seq-\$1-lasttime;
#X obj 156 410 r seq-\$1-lasttime;
#X obj 138 477 spigot 1;
#X obj 138 499 * 1000;
#X obj 138 522 del;
#X obj 138 618 +;
#X msg 138 570 1;
#X obj 106 226 t f f;
#X obj 207 255 sel 0;
#X msg 207 283 0;
#X obj 207 305 s seq-\$1-lasttime;
#X obj 295 542 list;
#X obj 156 594 r seq-\$1-getline;
#X obj 138 643 s seq-\$1-getline;
#X obj 106 198 r seq-\$1-getline;
#X obj 295 591 s seq-\$1-line;
#X obj 345 190 s seq-\$1-getline;
#X msg 345 168 0;
#X obj 319 626 r seq-\$1-line;
#X obj 319 653 print SEQ;
#X obj 569 399 metro;
#X obj 624 374 /;
#X obj 624 326 loadbang;
#X obj 569 428 i;
#X obj 600 428 + 1;
#X msg 555 354 1;
#X obj 555 326 t b b;
#X obj 342 469 * 60;
#X msg 354 260 stop;
#X obj 292 500 bng 15 250 50 0 empty empty empty 17 7 0 10 -262144
-1 -1;
#X obj 295 565 list trim;
#X obj 313 125 inlet go;
#X obj 444 131 inlet stop;
#X obj 569 482 outlet sec;
#X obj 552 127 inlet skip;
#X obj 459 537 r seq-\$1-getline;
#X obj 460 562 outlet line-num;
#X msg 552 150 0;
#X floatatom 441 599 5 0 0 0 - - -, f 5;
#X obj 708 357 r seq-\$1-lasttime;
#X obj 138 546 t b b b;
#X obj 384 377 r seq-\$1-lasttime;
#X obj 366 400 f;
#X obj 104 21 inlet load;
#X obj 106 305 list split 1;
#X msg 624 348 1000 10;
#X obj 626 399 * 10;
#X obj 569 451 / 10;
#X obj 224 342 sel 2;
#X msg 256 385 END;
#X msg 587 353 0;
#X obj 313 147 t b b;
#X floatatom 66 517 5 0 0 0 - - -, f 5;
#X obj 39 346 b;
#X msg 136 92 read /home/data/seq\$1.txt;
#X obj 104 47 route float;
#N canvas 6 74 406 486 cut# 0;
#X obj 84 49 inlet;
#X obj 160 258 list split 1;
#X obj 84 80 t b a b;
#X obj 259 286 t a;
#X msg 259 264 list;
#X obj 84 340 list;
#X obj 160 283 list append;
#X obj 107 102 t a a;
#X obj 160 237 list;
#X obj 107 124 list split 1;
#X obj 107 169 list fromsymbol;
#X obj 107 146 route symbol;
#X obj 160 215 b;
#X obj 107 193 route 35;
#X text 172 192 route # char;
#X obj 84 398 outlet;
#X msg 173 43 A B # C;
#X connect 0 0 2 0;
#X connect 1 0 6 0;
#X connect 1 1 7 0;
#X connect 2 0 5 0;
#X connect 2 1 7 0;
#X connect 2 2 4 0;
#X connect 3 0 5 1;
#X connect 3 0 6 1;
#X connect 4 0 3 0;
#X connect 5 0 15 0;
#X connect 6 0 3 0;
#X connect 7 0 9 0;
#X connect 7 1 8 1;
#X connect 8 0 1 0;
#X connect 9 0 11 0;
#X connect 10 0 13 0;
#X connect 11 0 10 0;
#X connect 11 1 12 0;
#X connect 12 0 8 0;
#X connect 13 1 12 0;
#X connect 16 0 2 0;
#X restore 146 331 pd cut#;
#X obj 224 364 t b b;
#X obj 204 368 bng 15 250 50 0 empty empty empty 17 7 0 10 -262144
-1 -1;
#X obj 39 282 route bang;
#X obj 39 392 bng 15 250 50 0 empty empty empty 17 7 0 10 -262144 -1
-1;
#X obj 104 69 t b f;
#N canvas 4 74 450 300 getlength 0;
#X obj 136 10 inlet;
#X obj 159 154 text get \$1;
#X obj 159 83 until;
#X obj 159 177 route bang;
#X obj 159 198 b;
#X obj 159 105 i;
#X obj 207 125 + 1;
#X obj 159 127 t f f;
#X obj 136 39 bng 15 250 50 0 empty empty empty 17 7 0 10 -262144 -1
-1;
#X obj 226 199 list split 1;
#X obj 226 221 route float;
#X obj 136 238 f;
#X obj 136 60 t b b b;
#X msg 197 103 0;
#X floatatom 136 259 5 0 0 0 - - -, f 5;
#X text 196 58 get length;
#X obj 136 278 outlet;
#X connect 0 0 8 0;
#X connect 1 0 3 0;
#X connect 2 0 5 0;
#X connect 3 0 4 0;
#X connect 3 1 9 0;
#X connect 4 0 2 1;
#X connect 5 0 7 0;
#X connect 6 0 5 1;
#X connect 7 0 1 0;
#X connect 7 1 6 0;
#X connect 8 0 12 0;
#X connect 9 0 10 0;
#X connect 10 0 11 1;
#X connect 11 0 14 0;
#X connect 12 0 11 0;
#X connect 12 1 2 0;
#X connect 12 2 13 0;
#X connect 13 0 5 1;
#X connect 13 0 11 1;
#X connect 14 0 16 0;
#X restore 104 144 pd getlength;
#X obj 104 165 s seq-\$1-length;
#X connect 2 0 1 0;
#X connect 3 0 65 0;
#X connect 3 1 54 0;
#X connect 4 0 8 0;
#X connect 4 0 58 0;
#X connect 5 0 6 0;
#X connect 5 1 4 0;
#X connect 7 0 4 1;
#X connect 8 0 9 0;
#X connect 9 0 10 0;
#X connect 10 0 46 0;
#X connect 11 0 19 0;
#X connect 12 0 11 0;
#X connect 13 0 3 0;
#X connect 13 1 14 0;
#X connect 14 0 15 0;
#X connect 15 0 16 0;
#X connect 17 0 36 0;
#X connect 18 0 11 1;
#X connect 20 0 13 0;
#X connect 23 0 22 0;
#X connect 24 0 25 0;
#X connect 26 0 29 0;
#X connect 27 0 26 1;
#X connect 28 0 51 0;
#X connect 29 0 30 0;
#X connect 29 0 53 0;
#X connect 30 0 29 1;
#X connect 31 0 26 0;
#X connect 32 0 31 0;
#X connect 32 1 56 0;
#X connect 34 0 10 0;
#X connect 34 0 26 0;
#X connect 35 0 17 0;
#X connect 36 0 21 0;
#X connect 37 0 57 0;
#X connect 38 0 34 0;
#X connect 40 0 43 0;
#X connect 41 0 42 0;
#X connect 41 0 44 0;
#X connect 43 0 10 0;
#X connect 46 0 12 0;
#X connect 46 1 17 0;
#X connect 46 2 48 0;
#X connect 47 0 48 1;
#X connect 48 0 52 0;
#X connect 49 0 61 0;
#X connect 50 0 5 0;
#X connect 50 1 62 0;
#X connect 51 0 27 0;
#X connect 52 0 29 1;
#X connect 53 0 39 0;
#X connect 54 0 63 0;
#X connect 55 0 21 0;
#X connect 56 0 52 0;
#X connect 57 0 32 0;
#X connect 57 1 23 0;
#X connect 59 0 66 0;
#X connect 60 0 0 0;
#X connect 61 0 67 0;
#X connect 62 0 17 1;
#X connect 63 0 34 0;
#X connect 63 1 55 0;
#X connect 64 0 63 0;
#X connect 65 0 59 0;
#X connect 65 1 50 0;
#X connect 67 0 68 0;
#X connect 67 1 60 0;
#X connect 68 0 69 0;
